<?xml version="1.0" standalone="no"?>
<!DOCTYPE svg PUBLIC "-//W3C//DTD SVG 20010904//EN"
 "http://www.w3.org/TR/2001/REC-SVG-20010904/DTD/svg10.dtd">
<svg version="1.0" xmlns="http://www.w3.org/2000/svg"
 width="252.000000pt" height="184.000000pt" viewBox="0 0 252.000000 184.000000"
 preserveAspectRatio="xMidYMid meet">
<metadata>
Created by potrace 1.10, written by Peter Selinger 2001-2011
</metadata>
<g transform="translate(0.000000,184.000000) scale(0.050000,-0.050000)"
fill="#000000" stroke="none">
<path d="M3070 2980 c-306 -275 -370 -350 -370 -436 0 -76 -10 -95 -94 -173
-83 -77 -91 -91 -67 -120 25 -30 38 -23 132 70 84 83 113 100 148 89 78 -24
161 32 321 218 193 223 189 250 -8 54 -190 -188 -215 -153 -32 44 189 203 178
221 -18 26 -105 -105 -162 -148 -172 -132 -9 15 39 79 131 171 81 82 142 152
137 158 -6 5 -72 -53 -149 -130 -123 -124 -189 -167 -189 -124 0 8 65 80 144
160 115 114 178 208 86 125z"/>
<path d="M1733 2927 c-38 -39 52 -251 150 -355 15 -15 45 -53 67 -84 22 -32
87 -106 144 -165 l104 -108 107 14 107 13 200 -226 c176 -201 340 -394 398
-473 94 -126 139 -146 206 -88 102 88 91 110 -163 312 -244 195 -382 322 -865
797 -353 347 -418 399 -455 363z"/>
<path d="M2220 2006 c-104 -94 -260 -225 -345 -290 -158 -120 -169 -137 -136
-222 51 -136 128 -96 344 178 51 65 161 194 244 287 114 128 146 176 130 195
-32 38 -30 39 -237 -148z"/>
<path d="M3725 1167 c-37 -15 -30 -83 11 -105 50 -26 89 3 81 60 -7 47 -44 65
-92 45z"/>
<path d="M320 1050 c0 -44 9 -50 72 -50 l72 0 -7 -175 -7 -175 55 -6 55 -7 0
182 0 181 70 0 c61 0 70 6 70 50 0 50 -1 50 -190 50 -189 0 -190 0 -190 -50z"/>
<path d="M1520 969 c0 -203 49 -291 175 -318 62 -14 65 -12 65 49 0 34 -7 58
-15 54 -41 -25 -105 27 -105 85 0 52 8 61 50 61 40 0 50 10 50 50 0 40 -10 50
-50 50 -40 0 -50 10 -50 50 0 42 -9 50 -60 50 l-60 0 0 -131z"/>
<path d="M2368 1050 c-84 -84 -40 -169 114 -221 157 -52 133 -76 -67 -69 -88
3 -95 0 -95 -46 0 -59 38 -73 184 -65 221 12 241 215 27 269 -141 35 -127 91
19 76 105 -11 110 -9 110 35 0 90 -209 104 -292 21z"/>
<path d="M2736 935 c12 -212 69 -295 203 -295 54 0 21 117 -34 124 -80 9 -96
136 -16 136 41 0 51 10 51 50 0 40 -10 50 -50 50 -40 0 -50 10 -50 50 0 42
-10 50 -57 50 l-56 0 9 -165z"/>
<path d="M3440 949 c0 -186 32 -257 131 -289 123 -41 145 48 27 107 -72 36
-79 133 -9 133 41 0 51 10 51 50 0 41 -10 50 -52 50 -45 0 -51 7 -43 50 8 44
2 50 -48 50 l-57 0 0 -151z"/>
<path d="M794 980 c-78 -62 -85 -300 -8 -300 2 0 33 -8 67 -18 45 -13 78 -10
114 8 28 15 54 19 57 10 8 -21 89 -34 94 -15 5 18 -17 190 -31 241 -30 106
-198 149 -293 74z m186 -90 c30 -37 11 -121 -31 -138 -48 -18 -109 24 -109 75
0 84 89 125 140 63z"/>
<path d="M1204 979 c-78 -72 -42 -149 86 -181 119 -30 94 -66 -33 -50 -93 13
-97 11 -97 -35 0 -102 287 -82 313 22 18 73 -14 112 -110 134 -111 25 -106 59
7 46 83 -9 90 -7 90 35 0 78 -182 99 -256 29z"/>
<path d="M1838 962 c-142 -143 9 -361 214 -310 91 23 65 108 -33 105 -44 -2
-89 5 -99 15 -12 12 11 20 61 21 137 3 193 95 109 179 -70 70 -176 65 -252
-10z m177 -67 c-10 -30 -115 -46 -115 -18 0 23 34 39 87 41 20 1 33 -9 28 -23z"/>
<path d="M3064 970 c-148 -124 15 -413 170 -300 25 19 45 18 90 -5 77 -39 80
-33 57 125 -30 216 -176 299 -317 180z m198 -105 c13 -34 7 -56 -21 -84 -74
-74 -171 6 -121 99 30 57 119 47 142 -15z"/>
<path d="M3704 835 c6 -182 7 -185 56 -185 49 0 50 3 56 185 l6 185 -62 0 -62
0 6 -185z"/>
<path d="M3970 997 c-197 -119 -60 -393 166 -333 117 31 156 223 63 307 -46
42 -178 57 -229 26z m167 -146 c12 -107 -123 -142 -149 -38 -16 63 26 111 90
103 41 -5 53 -19 59 -65z"/>
<path d="M4377 974 c-95 -87 -107 -324 -17 -324 46 0 50 8 56 109 13 231 149
233 152 3 2 -106 5 -112 52 -112 74 0 86 218 16 299 -68 79 -189 91 -259 25z"/>
</g>
</svg>
