<?xml version="1.0" standalone="no"?>
<!DOCTYPE svg PUBLIC "-//W3C//DTD SVG 20010904//EN"
 "http://www.w3.org/TR/2001/REC-SVG-20010904/DTD/svg10.dtd">
<svg version="1.0" xmlns="http://www.w3.org/2000/svg"
 width="417.000000pt" height="336.000000pt" viewBox="0 0 417.000000 336.000000"
 preserveAspectRatio="xMidYMid meet">
<metadata>
Created by potrace 1.10, written by Peter Selinger 2001-2011
</metadata>
<g transform="translate(0.000000,336.000000) scale(0.100000,-0.100000)"
fill="#000000" stroke="none">
<path d="M3223 2887 c-44 -24 -385 -322 -464 -404 -129 -137 -133 -146 -134
-285 0 -64 -3 -120 -7 -125 -4 -4 -72 -72 -150 -150 l-143 -142 43 -43 43 -43
139 142 c153 155 180 172 247 154 46 -13 136 0 185 25 69 36 276 245 418 424
19 24 56 66 83 93 26 27 47 55 47 62 0 11 -20 25 -36 25 -6 0 -40 -35 -209
-216 -216 -230 -208 -224 -246 -204 -36 20 -22 50 59 129 43 42 128 128 190
192 61 64 128 131 148 148 38 34 40 61 5 61 -17 0 -343 -314 -438 -422 -27
-31 -37 -36 -55 -29 -15 5 -24 18 -26 36 -3 26 22 54 229 258 228 226 244 246
190 247 -12 0 -192 -170 -381 -361 -67 -68 -89 -82 -115 -73 -19 8 -20 58 -1
76 7 7 69 67 138 133 68 66 158 153 201 194 72 68 88 93 69 105 -4 2 -17 -1
-29 -7z m-357 -639 c75 -72 81 -98 32 -128 -33 -20 -112 -27 -134 -12 -18 12
-34 49 -34 77 0 36 42 125 58 125 8 0 43 -28 78 -62z"/>
<path d="M1113 2788 c-11 -13 -23 -31 -26 -40 -8 -24 35 -155 75 -225 37 -66
169 -264 205 -308 14 -16 48 -61 77 -100 28 -38 63 -83 76 -99 200 -232 213
-245 266 -281 70 -47 151 -56 220 -25 27 12 70 22 96 23 46 1 48 -1 120 -79
186 -201 236 -256 271 -296 21 -24 83 -92 138 -153 55 -60 116 -128 135 -150
19 -22 50 -58 69 -80 19 -22 35 -43 35 -47 0 -4 17 -24 38 -45 21 -21 51 -58
67 -82 17 -25 39 -54 50 -66 11 -12 46 -57 78 -101 31 -43 75 -99 96 -124 39
-45 40 -45 100 -43 117 3 168 48 190 165 12 69 -6 98 -117 181 -53 40 -140
108 -195 152 -55 44 -118 94 -141 111 -23 17 -69 56 -103 88 -33 31 -64 56
-68 56 -3 0 -32 24 -63 53 -31 30 -93 87 -137 127 -44 40 -118 108 -165 152
-47 43 -91 83 -99 87 -7 5 -259 254 -560 553 -326 325 -569 559 -603 581 -65
43 -96 46 -125 15z m256 -285 c16 -16 149 -147 297 -293 344 -339 357 -356
317 -386 -21 -15 -93 -8 -133 12 -48 24 -300 301 -331 364 -7 14 -27 41 -45
60 -56 61 -164 232 -164 260 0 19 32 10 59 -17z m1754 -1647 c23 -18 63 -45
88 -60 51 -29 139 -117 139 -139 0 -28 -25 -49 -55 -45 -36 4 -152 133 -162
178 -3 17 -9 30 -14 30 -15 0 -49 39 -49 55 0 21 6 19 53 -19z"/>
<path d="M2058 1527 c-181 -172 -514 -464 -603 -529 -5 -4 -31 -25 -57 -45
-40 -32 -65 -52 -153 -115 -5 -4 -40 -33 -77 -63 -65 -53 -68 -58 -68 -99 0
-42 24 -130 42 -153 23 -29 95 -56 151 -57 54 -1 61 1 85 30 61 72 73 88 104
132 18 26 51 70 73 97 22 28 54 68 70 90 64 88 278 339 404 475 59 63 127 137
152 165 24 27 49 55 56 63 15 15 8 39 -21 70 -42 47 -45 46 -158 -61z m-568
-667 c0 -39 -145 -234 -182 -246 -29 -9 -56 5 -62 32 -9 33 3 52 64 99 29 22
75 59 104 82 50 42 76 53 76 33z"/>
</g>
</svg>
